<?xml version="1.0" encoding="UTF-8"?>
<svg width="512" height="512" viewBox="0 0 512 512" fill="none" xmlns="http://www.w3.org/2000/svg">
  <rect width="512" height="512" rx="256" fill="#005BAC"/>
  <path d="M256 120C182.5 120 123 179.5 123 253C123 326.5 182.5 386 256 386C329.5 386 389 326.5 389 253C389 179.5 329.5 120 256 120ZM256 366C193.5 366 143 315.5 143 253C143 190.5 193.5 140 256 140C318.5 140 369 190.5 369 253C369 315.5 318.5 366 256 366Z" fill="white"/>
  <path d="M256 160C204.5 160 163 201.5 163 253C163 304.5 204.5 346 256 346C307.5 346 349 304.5 349 253C349 201.5 307.5 160 256 160ZM256 326C215.5 326 183 293.5 183 253C183 212.5 215.5 180 256 180C296.5 180 329 212.5 329 253C329 293.5 296.5 326 256 326Z" fill="white"/>
  <path d="M256 200C226.5 200 203 223.5 203 253C203 282.5 226.5 306 256 306C285.5 306 309 282.5 309 253C309 223.5 285.5 200 256 200ZM256 286C237.5 286 223 271.5 223 253C223 234.5 237.5 220 256 220C274.5 220 289 234.5 289 253C289 271.5 274.5 286 256 286Z" fill="white"/>
  <path d="M256 240C247.2 240 240 247.2 240 256C240 264.8 247.2 272 256 272C264.8 272 272 264.8 272 256C272 247.2 264.8 240 256 240Z" fill="white"/>
</svg>